<svg id="Layer_1" data-name="Layer 1" xmlns="http://www.w3.org/2000/svg" width="573.27" height="720.79" viewBox="0 0 573.27 720.79"><defs><style>.cls-1{fill:#003886;}.cls-2{fill:#929497;}</style></defs><title>university_of_north_florida_logo</title><path class="cls-1" d="M647.66,727.89h5.67v1.63h-1.82v4.56h-2v-4.56h-1.82v-1.63" transform="translate(-88.36 -14.61)"/><path class="cls-1" d="M654.55,734.09V727.9H657l1.09,3.86,1.09-3.86h2.46v6.19h-1.83V732.2l0-1,.1-1.12h0l-1.13,4h-1.41l-1.13-4h0l.09.92,0,1v2.1h-1.82" transform="translate(-88.36 -14.61)"/><path class="cls-2" d="M368,173.05c-11.09,1.19-24.76-8.88-38-24.44,12.63,41.57,70.73,65.28,82.62,75.37-23.45-44-17.09-63.88-32.08-77.32-5.06-4.54-42.49-48.19-49.2-82.85-4.94,31.1,17.4,66.08,28.9,81.22-15.63-7.36-31-30.69-41.61-51.24-2.17,12,26,67.45,49.33,79.25" transform="translate(-88.36 -14.61)"/><path class="cls-2" d="M446.61,276.81c2-18.76-34.09-41.78-85.31-69.52s-82.74-61.64-95.69-74c-8.7-8.3-73-34.28-106.42-118.7C171.51,108,223.65,150,244.79,164c-16.78-2.51-34.5-5-72.75-38.72,27.06,45.39,48.39,68.92,102.33,90.56-15.24,2.51-37.48-.57-60.48-8.61C233.42,226,295.3,248.8,341.6,255.63,334.32,278,275.29,323,274.89,327.71c28,1,40.69-8,43.72-7.2.9,3.9.51,11.33,2.82,13.56,7.94-.25,28.52-11.55,30.42-15.16,2,.84,8.86,13.4,13.22,11.21,3.11-3.4,10.27-25.45,12.18-31.44.6-2.06,1.53-4.71,1.71-5.21l10.62,19.79s19.81,13,24,15.58c-3.85,2.54-6.44,6.23-1.31,10.31-2.67-3.77.8-6.79,3.89-8.61,2.93-1.08,8.63-2.31,10.53,4.93.26-4.55-.89-6.88-2.48-7.94,2.41-1,10.75-4.49,11.59,1.92.61-3.91-.77-5.8-3-6.51,2.31-.84,4.88-1.19,5.67.28-.92-5.34-12.53-.92-15.51.59-4.34-4-16.67-18.28-16.67-18.28l.25-31.65a120.19,120.19,0,0,1,15.19,2.81c14.33,4.83,24.22,10,19.77,14.49,9.4-2.33,7.58-10.85,5.05-14.37" transform="translate(-88.36 -14.61)"/><path class="cls-1" d="M479.47,376.81c13.63,3.19,16.58,19.84,16.74,31.62V514.9c0,12.57,1.67,33.25-12.58,38.29V554h52.81v-.83c-14-5.31-11.74-25.72-11.74-38.29V466.37h20.68c8.66,0,40.78-.57,45.25,7.83h.83V442.53h-.83c-3.36,1.68-18,1.68-22.2,1.68H524.7v-52c8.95-1.67,18.72-2,28.51-2,12.85,0,44.69,1.12,53.34,10.9h.84V368.76h-.84c-3.63,2-8.37,1.4-13.13,1.4H428.18V371c14.78,8.4,14.5,19.52,14.5,35.14V511.86L340.59,383l-3.9-5.58a17.31,17.31,0,0,1-4.19-7v-.28H240.18V371c14,5.3,12.29,25.68,12.29,38.26v84.06c0,10.06.27,17-5.87,25.42-9.21,13.12-25.14,19.55-40.78,19.55-28.76,0-44.41-17.32-44.41-54.47V409.26c0-12.58-1.67-33,12.3-38.26v-.84H120.64V371c14.25,5.3,12.29,25.68,12.29,38.26v74.56c0,20.12-.56,38.83,14.24,55,12.57,13.68,32.12,19.55,50.55,19.55,48.86,0,74.69-29.06,74.69-63.18,0-5.73.39-18.82.39-24.4V409.54c0-12.87,3.11-29.54,16.73-32.74,13.64,3.19,16.6,19.87,16.74,31.62v109c0,15.62,0,26.77-14.78,35.43v.82h49.37v-.82c-14.78-8.66-14.5-19.81-14.5-35.43V409.5L422,530.83c12.27,15.9,20.92,25.1,40.72,31.79,0,0-.11-145.29,0-154.19.13-11.76,3.08-28.45,16.71-31.62" transform="translate(-88.36 -14.61)"/><path class="cls-1" d="M97.12,724.05c0,3.92-.07,6.72,3.64,8.89v.21H88.36v-.21c3.72-2.17,3.72-5,3.72-8.89V696.11c0-3.92,0-6.72-3.64-8.82v-.21H98.66v.07a4.33,4.33,0,0,0,1,1.75l1,1.4,25.63,32.35V696.11c0-3.92.07-6.72-3.64-8.82v-.21H135v.21c-3.64,2.1-3.64,4.9-3.64,8.82v39.28c-5-1.68-7.14-4-10.22-8L97.12,697v27.1" transform="translate(-88.36 -14.61)"/><path class="cls-1" d="M191.53,709.65c0,14.28-11.84,24.65-25.77,24.65S140.2,724.35,140.2,710c0-13.3,11.56-24.44,26.26-24.09,14.7-.07,25.07,11.14,25.07,23.74Zm-43.35-.28c0,9.8,6.94,19.88,17.93,19.88,10.64,0,17.43-7.77,17.43-18.2,0-10.22-6.51-20.1-17.57-20.1-10.85,0-17.79,7.85-17.79,18.42" transform="translate(-88.36 -14.61)"/><path class="cls-1" d="M214.69,687.11c9.39,0,14.5,4.9,14.5,11.27,0,6.16-5.39,11-11.13,12.32l10.08,12.68a49.1,49.1,0,0,0,11.34,9.8H233c-3.71,0-6-.91-8.12-3.5l-8.54-10.57-6.45-9.88c5.6-.84,12.12-3.43,12.12-10,0-5-4.34-8-9-7.77a36.9,36.9,0,0,0-4.77.56v31.37c0,3.22-.42,8.33,3.16,9.59v.21H198V733c3.57-1.26,3.08-6.44,3.08-9.59V697c0-3.22.49-8.33-3.08-9.66v-.21h16.66" transform="translate(-88.36 -14.61)"/><path class="cls-1" d="M258.43,724.05c0,4-.07,6.72,3.64,8.89v.21H248.21v-.21c3.5-1.33,3.08-6.44,3.08-9.59V692.12h-6.17a12.17,12.17,0,0,0-8.33,2.8h-.21l2.45-8.33h.21a11.16,11.16,0,0,0,2.66.49h27.87a7.8,7.8,0,0,0,3.22-.49h.21L271,694.92h-.21c-.91-2.45-3.71-2.8-6-2.8h-6.3v31.93" transform="translate(-88.36 -14.61)"/><path class="cls-1" d="M290.22,710.71v12.67c0,3.15-.42,8.27,3.08,9.6v.21H280V733c3.5-1.33,3.08-6.45,3.08-9.6V696.92c0-3.16.49-8.27-3.08-9.6v-.2h13.3v.2c-3.5,1.33-3.08,6.44-3.08,9.66v8.69H315.5V697c0-3.22.49-8.33-3.08-9.66v-.2h13.37v.2c-3.57,1.33-3.15,6.44-3.15,9.6v26.46c0,3.15-.42,8.27,3.15,9.6v.21H312.42V733c3.57-1.33,3.08-6.45,3.08-9.6V710.71H290.22" transform="translate(-88.36 -14.61)"/><path class="cls-1" d="M366.42,723.38c0,3.15-.56,8.26,2.94,9.59v.21H356.13V733c3.57-1.26,3.15-6.44,3.15-9.59V697c0-3.22.42-8.33-3.15-9.66v-.21h22.4a7.14,7.14,0,0,0,3.29-.35H382v8.12h-.21c-2.17-2.45-5-2.73-8.26-2.73a39.46,39.46,0,0,0-7.14.49v13h8.4a7,7,0,0,0,3-.42H378v7.42h-.21c-1.12-2.1-4.06-2-6.23-2h-5.18v12.68" transform="translate(-88.36 -14.61)"/><path class="cls-1" d="M411.17,728.1a17.22,17.22,0,0,0,12.39-4.27h.21l-3.64,9.31H391.35v-.21c3.57-1.26,3.15-6.44,3.15-9.59v-26.4c0-3.22.42-8.33-3.15-9.66v-.21h13.37v.21c-3.57,1.33-3.08,6.51-3.08,9.66v30.53l9.53.63" transform="translate(-88.36 -14.61)"/><path class="cls-1" d="M476.62,709.65c0,14.28-11.83,24.65-25.76,24.65S425.3,724.35,425.3,710c0-13.3,11.55-24.44,26.26-24.09,14.7-.07,25.06,11.14,25.06,23.74Zm-43.34-.28c0,9.8,6.94,19.88,17.93,19.88,10.64,0,17.43-7.77,17.43-18.2,0-10.22-6.51-20.1-17.57-20.1-10.85,0-17.79,7.85-17.79,18.42" transform="translate(-88.36 -14.61)"/><path class="cls-1" d="M499.12,687.11c9.38,0,14.49,4.9,14.49,11.27,0,6.16-5.39,11-11.13,12.32l10.08,12.68a48.94,48.94,0,0,0,11.35,9.8h-6.45c-3.71,0-6-.91-8.12-3.5l-8.54-10.57-6.44-9.88c5.6-.84,12.11-3.43,12.11-10,0-5-4.34-8-9-7.77a37.11,37.11,0,0,0-4.77.56v31.37c0,3.22-.42,8.33,3.16,9.59v.21H482.45V733c3.57-1.26,3.08-6.44,3.08-9.59V697c0-3.22.49-8.33-3.08-9.66v-.21h16.67" transform="translate(-88.36 -14.61)"/><path class="cls-1" d="M529.85,697c0-3.22.49-8.33-3.08-9.66v-.21h13.3v.21c-3.5,1.33-3.08,6.51-3.08,9.66v26.4c0,3.15-.42,8.26,3.08,9.59v.22h-13.3V733c3.5-1.26,3.08-6.44,3.08-9.59V697" transform="translate(-88.36 -14.61)"/><path class="cls-1" d="M552.2,696.69c0-3.22.49-8.33-3.08-9.38v-.21h17.15c16,0,25.91,8.68,25.91,22.62,0,13.79-10.58,23.46-26.26,23.46h-16.8V733c3.5-2.38,3.08-5.74,3.08-9.87Zm7.14,30.95a24.8,24.8,0,0,0,5.11.49c10.43,0,19.74-5.46,19.74-17.57s-6.85-18.42-18.55-18.42a27.7,27.7,0,0,0-6.3.77v34.73" transform="translate(-88.36 -14.61)"/><path class="cls-1" d="M606.53,715.86l-3.64,9.87c-1.47,3.93-2,6,1.4,7.22v.21H591.41V733c4.06-2,5.25-6,6.79-9.94l11.69-29.2c1-2.52,2.31-5.46-1-6.52v-.2H619.9L634.47,723c1.61,4,2.87,7.91,6.86,9.94v.21H627V733c3.43-1.54,2.87-2.31,1-7.22l-3.78-9.87ZM615.28,693l-6.93,17.64h13.8L615.28,693" transform="translate(-88.36 -14.61)"/><path class="cls-1" d="M171,648.29c-3,4-8.09,7.07-15.78,7.07-5.62,0-10.83-1.64-14.38-5.35-2.91-3-4.16-6.87-4.16-14.14V618c0-3.15.49-8.26-3.08-9.59v-.21h13.3v.21c-3.5,1.33-3.08,6.44-3.08,9.59v17.9c0,10.74,4.44,14.45,12.37,14.45a12.92,12.92,0,0,0,11-5.56c1.54-2.1,1.34-8,1.34-10.49V618c0-3.15.42-8.26-3.08-9.59v-.21h11.25l.07.21c-3.57,1.33-3.15,6.44-3.15,9.66V631c0,10.69-.92,15-2.64,17.31" transform="translate(-88.36 -14.61)"/><path class="cls-1" d="M194.09,645.11c0,3.92-.07,6.72,3.64,8.89v.21H185.34V654c3.71-2.17,3.71-5,3.71-8.89V617.17c0-3.92,0-6.72-3.64-8.82v-.21h10.22v.07a4.33,4.33,0,0,0,1.05,1.75l1,1.4,25.64,32.35V617.17c0-3.92.07-6.72-3.65-8.82v-.21H232v.21c-3.64,2.1-3.64,4.9-3.64,8.82v39.28c-5-1.68-7.14-4-10.23-8l-24-30.46v27.1" transform="translate(-88.36 -14.61)"/><path class="cls-1" d="M244.38,618c0-3.23.49-8.33-3.08-9.67v-.21h13.3v.21c-3.5,1.34-3.08,6.52-3.08,9.67v26.39c0,3.16-.42,8.27,3.08,9.6v.21H241.3V654c3.5-1.27,3.08-6.45,3.08-9.6V618" transform="translate(-88.36 -14.61)"/><path class="cls-1" d="M294.18,620.83c1.89-5,4.27-10.71-.07-12.46v-.21h10.43l-18.48,48.17c-4.9-3.22-6.51-3.78-8.54-9.31l-10.58-28.64c-1.33-3.57-2.38-7.63-5.46-10v-.21h10.23l-.07.84c0,1.54,1.33,5,1.89,6.51L284.66,646l9.52-25.14" transform="translate(-88.36 -14.61)"/><path class="cls-1" d="M321.25,648.33l8.89.84a17.46,17.46,0,0,0,13-4.13h.21l-3.15,9.17H311V654c3.57-1.26,3.15-6.44,3.15-9.59V618c0-3.23.42-8.34-3.15-9.67v-.21h22.41a7.15,7.15,0,0,0,3.29-.35h.21V616h-.21c-2.17-2.52-5.05-2.8-8.27-2.8a38.56,38.56,0,0,0-7.14.5v13h8.33a7.14,7.14,0,0,0,3.08-.42h.21v7.42h-.21c-1.12-2-4.06-2-6.23-2h-5.18v16.59" transform="translate(-88.36 -14.61)"/><path class="cls-1" d="M364.89,608.16c9.38,0,14.49,4.9,14.49,11.28,0,6.16-5.39,11-11.13,12.32l10.08,12.67a48.75,48.75,0,0,0,11.35,9.81h-6.45c-3.71,0-6-.92-8.12-3.51l-8.54-10.57-6.44-9.87c5.6-.84,12.11-3.43,12.11-10,0-5-4.34-8-9-7.78a36.75,36.75,0,0,0-4.76.56v31.37c0,3.22-.42,8.33,3.15,9.59v.21H348.22V654c3.57-1.26,3.08-6.44,3.08-9.59V618c0-3.23.49-8.34-3.08-9.67v-.21h16.67" transform="translate(-88.36 -14.61)"/><path class="cls-1" d="M419.56,616.5a15.94,15.94,0,0,0-11-4.41c-4,0-9,1.54-9,6.37,0,9.59,24.09,9.45,24.09,22.41,0,7.49-7.84,14.49-18.77,14.49a36.24,36.24,0,0,1-12.53-2.1l-2-8.76a24.19,24.19,0,0,0,15.34,5.82c4,0,10-2.38,10-7.29,0-10.92-24.09-9-24.09-23.8,0-8.83,9-12.19,17.58-12.19a34.87,34.87,0,0,1,10.43,1.55v7.91" transform="translate(-88.36 -14.61)"/><path class="cls-1" d="M434.54,618c0-3.23.49-8.33-3.08-9.67v-.21h13.3v.21c-3.5,1.34-3.08,6.52-3.08,9.67v26.39c0,3.16-.42,8.27,3.08,9.6v.21h-13.3V654c3.5-1.27,3.08-6.45,3.08-9.6V618" transform="translate(-88.36 -14.61)"/><path class="cls-1" d="M472.2,645.11c0,4-.07,6.72,3.65,8.89v.21H462V654c3.5-1.33,3.08-6.44,3.08-9.59V613.18H458.9a12.15,12.15,0,0,0-8.33,2.8h-.21l2.45-8.33H453a11.16,11.16,0,0,0,2.66.49h27.87a7.8,7.8,0,0,0,3.22-.49H487L484.74,616h-.21c-.91-2.45-3.71-2.8-6-2.8H472.2v31.93" transform="translate(-88.36 -14.61)"/><path class="cls-1" d="M514.64,645.11c0,4.2,0,6.3,3.57,8.89v.21H504.56V654c3.43-1.75,2.94-6.3,2.94-9.59V634.05l-11.63-18.7c-1.89-3.08-3.29-5.39-6.65-7.21h6.37c2.24,0,4.35.49,5.26,2l11.2,18.27,8.68-13c1.19-1.75,2.8-5.11-1.12-7v-.21h12.25l-17.22,25.91v11.06" transform="translate(-88.36 -14.61)"/><path class="cls-1" d="M570.8,635.23a19.57,19.57,0,0,1-2.52,9.41,19.16,19.16,0,0,1-7,7.39,16.93,16.93,0,0,1-8.76,2.73,9.54,9.54,0,0,1-7.1-2.78,9.73,9.73,0,0,1-2.75-7.18,18.71,18.71,0,0,1,2.68-9.35,20.34,20.34,0,0,1,7.18-7.41,16.75,16.75,0,0,1,8.69-2.73,9.31,9.31,0,0,1,6.91,2.76,9.76,9.76,0,0,1,2.71,7.16ZM565.61,633a6.39,6.39,0,0,0-1.46-4.51,4.84,4.84,0,0,0-3.75-1.57q-4.7,0-8.63,6.67a25.91,25.91,0,0,0-3.95,13.26,6.51,6.51,0,0,0,1.54,4.65,5.06,5.06,0,0,0,3.86,1.63q4.5,0,8.44-6.64a26.15,26.15,0,0,0,4-13.49" transform="translate(-88.36 -14.61)"/><path class="cls-1" d="M594,626l-.57,2.08h-4.71l-3.81,14.09a100.09,100.09,0,0,1-5,14.13q-3.36,7.08-7.23,9.79a10.22,10.22,0,0,1-5.88,2.06,4.92,4.92,0,0,1-3.26-1.13,2.49,2.49,0,0,1-1-2,2.26,2.26,0,0,1,.81-1.74,2.86,2.86,0,0,1,2-.75,2.07,2.07,0,0,1,1.45.54,1.64,1.64,0,0,1,.59,1.23,1.85,1.85,0,0,1-.59,1.3q-.45.44-.45.66a.51.51,0,0,0,.22.44,1.34,1.34,0,0,0,.86.22,5.59,5.59,0,0,0,2.8-.86,8.2,8.2,0,0,0,2.61-2.58,20.33,20.33,0,0,0,2.16-4.95c.32-.89,1.16-3.82,2.54-8.79l6.1-21.61h-6.18l.45-2.08a15.44,15.44,0,0,0,4.13-.37,5,5,0,0,0,2.16-1.4,16.41,16.41,0,0,0,2.32-3.86,31.41,31.41,0,0,1,3.46-5.92,16.85,16.85,0,0,1,4.76-4.24,9.49,9.49,0,0,1,4.69-1.42,5.42,5.42,0,0,1,3.73,1.24,3.56,3.56,0,0,1,1.41,2.68,2.59,2.59,0,0,1-.74,1.89,2.44,2.44,0,0,1-1.88.77,2.3,2.3,0,0,1-1.61-.57,1.81,1.81,0,0,1-.62-1.37,2.78,2.78,0,0,1,.4-1.26,2.9,2.9,0,0,0,.41-1,.84.84,0,0,0-.26-.67,1.7,1.7,0,0,0-1.1-.32,4.72,4.72,0,0,0-3.28,1.31,14.79,14.79,0,0,0-3.49,5.42q-.78,1.94-3.1,9.09H594" transform="translate(-88.36 -14.61)"/></svg>